<svg viewBox="0 0 139 23" fill="none" xmlns="http://www.w3.org/2000/svg">
<path d="M16.896 12.74C16.128 13.124 14.352 13.364 12.816 13.484V16.076C15.168 16.052 17.352 15.956 18.792 15.788C19.752 15.668 20.928 16.292 20.976 17.516C21.024 18.764 20.112 19.46 19.272 19.604C16.416 19.964 5.64 20.06 2.328 19.604C1.416 19.46 0.456 18.62 0.624 17.444C0.792 16.292 1.92 15.668 2.784 15.788C4.224 15.932 6.432 16.028 8.784 16.076V13.46C7.2 13.316 5.448 13.052 4.8 12.764C4.176 12.452 3.192 11.828 2.976 10.724C2.52 8.396 2.688 4.988 2.976 3.236C3.144 2.228 4.2 1.46 4.848 1.46H16.728C17.376 1.46 18.408 2.228 18.6 3.212C18.96 4.964 19.056 8.468 18.624 10.724C18.384 11.9 17.448 12.428 16.896 12.74ZM14.832 5.66C14.808 5.348 14.64 5.252 14.352 5.252H7.272C6.96 5.252 6.792 5.324 6.744 5.66C6.672 6.212 6.624 8.108 6.744 8.852C6.792 9.212 6.936 9.404 7.272 9.476C8.112 9.62 9.48 9.74 10.896 9.74C12.24 9.74 13.488 9.62 14.232 9.5C14.664 9.428 14.784 9.236 14.832 8.852C14.928 8.132 14.88 6.164 14.832 5.66ZM28.2574 6.212C28.2814 6.524 28.4734 6.764 28.8574 6.836C29.6974 6.98 30.9694 7.1 32.7454 7.1C34.6894 7.1 36.5134 6.812 38.1694 6.38C39.2014 6.116 40.3054 6.428 40.5934 7.532C40.8334 8.42 40.4974 9.404 39.6574 9.812C37.7854 10.724 34.7854 10.892 32.5534 10.916C30.3214 10.916 27.7534 10.7 26.3374 10.148C25.6414 9.86 24.7054 9.164 24.4894 8.084C24.1774 6.38 24.2254 4.1 24.4414 2.42C24.5854 1.316 25.5934 0.499999 26.2414 0.499999H38.5774C39.5374 0.499999 40.0894 1.364 40.0894 2.348C40.0894 3.164 39.6334 4.268 38.5774 4.268H28.8334C28.4734 4.268 28.2814 4.436 28.2574 4.628C28.2094 5.036 28.2094 5.684 28.2574 6.212ZM23.9374 15.884C23.0254 15.74 22.1374 15.02 22.2334 13.724C22.3294 12.5 23.5294 11.948 24.3934 12.068C28.1134 12.428 36.7294 12.5 40.4014 12.068C41.3614 11.948 42.4654 12.476 42.5854 13.796C42.7054 15.116 41.7214 15.74 40.8814 15.884C39.7054 16.052 37.2094 16.148 34.4254 16.172V20.588C34.4254 21.476 33.2974 22.028 32.3854 22.028C31.4974 22.028 30.3934 21.476 30.3934 20.588V16.196C27.7054 16.172 25.2334 16.076 23.9374 15.884ZM58.4828 7.364C58.4828 11.66 55.2668 13.988 51.5228 13.988C47.5628 13.988 44.6108 11.444 44.6108 7.34C44.6108 3.26 47.6588 0.644 51.5228 0.644C55.5788 0.644 58.4828 3.356 58.4828 7.364ZM54.5228 7.316C54.5228 5.612 53.4908 4.46 51.5228 4.46C49.6748 4.46 48.5708 5.66 48.5708 7.34C48.5708 8.852 49.5788 10.172 51.5468 10.172C53.3468 10.172 54.5228 9.02 54.5228 7.316ZM45.5468 19.604C44.6348 19.46 43.6988 18.884 43.8428 17.444C43.9868 16.076 45.1388 15.668 46.0028 15.788C49.7228 16.148 53.4908 16.22 57.1628 15.788C58.1228 15.668 59.2508 16.316 59.3468 17.516C59.4428 18.788 58.4828 19.46 57.6428 19.604C54.7868 19.964 48.8588 20.06 45.5468 19.604ZM63.9308 1.844C64.3868 5.132 64.1948 16.484 63.9308 19.148C63.7868 20.108 62.7788 20.9 61.7468 20.804C60.5708 20.684 59.8748 19.748 59.9228 18.788C60.2348 15.14 60.2828 5.972 59.9228 2.276C59.7788 1.268 60.7148 0.308 61.6748 0.211999C62.7788 0.0919995 63.7868 0.835999 63.9308 1.844ZM86.2389 5.636C86.2389 5.9 86.2149 6.164 86.1909 6.404C86.3589 6.284 86.5509 6.212 86.7429 6.212H87.3909C87.3429 4.7 87.2949 3.38 87.1989 2.396C87.0549 1.388 87.8709 0.427999 88.8309 0.331999C89.9109 0.211999 90.7989 0.956 90.9429 1.964C91.3989 5.252 91.2069 16.364 90.9429 19.028C90.7989 19.988 90.1269 20.756 88.9029 20.684C87.7509 20.612 87.1509 19.628 87.1989 18.668C87.3669 16.748 87.4629 13.34 87.4629 10.004H86.7429C86.0469 10.004 85.6389 9.284 85.5189 8.564C84.5589 10.124 82.7349 10.82 80.5269 10.82C76.9509 10.82 74.8149 9.044 74.8149 5.636C74.8149 2.132 77.0709 0.404 80.5269 0.404C84.1749 0.404 86.2389 2.228 86.2389 5.636ZM82.2309 5.636C82.2309 4.604 81.7989 3.98 80.5269 3.98C79.3509 3.98 78.8229 4.652 78.8229 5.636C78.8229 6.524 79.3269 7.244 80.5269 7.244C81.6789 7.244 82.2309 6.62 82.2309 5.636ZM76.0389 15.332C75.1269 15.188 74.1669 14.372 74.3349 13.172C74.5029 11.948 75.6309 11.396 76.4949 11.516C80.2389 11.876 81.1029 11.948 84.7749 11.516C85.7349 11.396 86.8149 11.972 86.9589 13.244C87.1029 14.468 86.0949 15.188 85.2549 15.332C84.4389 15.428 83.6229 15.524 82.7829 15.572V19.652C82.7829 20.396 81.7749 21.044 80.8629 21.044C79.9749 21.044 78.9909 20.372 78.9909 19.652V15.596C78.0309 15.548 77.0469 15.476 76.0389 15.332ZM95.6949 1.844C96.1509 5.132 95.9589 16.484 95.6949 19.148C95.5509 20.108 94.8549 20.876 93.6309 20.804C92.4789 20.732 91.9029 19.748 91.9509 18.788C92.2629 15.14 92.3109 5.972 91.9509 2.276C91.8069 1.268 92.5989 0.308 93.5589 0.211999C94.6389 0.0919995 95.5509 0.835999 95.6949 1.844ZM111.415 10.124C111.415 15.26 109.519 19.1 105.031 19.076C100.351 19.1 98.6469 15.14 98.6469 10.1C98.6469 5.084 100.351 1.148 105.031 1.124C109.807 1.148 111.415 5.42 111.415 10.124ZM107.383 10.148C107.383 6.428 106.687 4.964 105.007 4.964C103.471 4.964 102.679 6.332 102.679 10.148C102.679 13.724 103.327 15.236 105.007 15.236C106.711 15.236 107.383 13.724 107.383 10.148ZM116.887 1.844C117.343 5.132 117.151 16.484 116.887 19.148C116.743 20.108 115.735 20.9 114.703 20.804C113.527 20.684 112.831 19.748 112.879 18.788C113.191 15.14 113.239 5.972 112.879 2.276C112.735 1.268 113.671 0.308 114.631 0.211999C115.735 0.0919995 116.743 0.835999 116.887 1.844ZM130.489 14.684C131.257 14.396 132.649 14.756 132.937 15.98C133.201 17.132 132.313 17.972 131.785 18.188C130.585 18.788 128.665 19.076 127.057 19.076C125.353 19.076 123.457 18.692 122.521 18.284C121.897 17.972 120.985 17.348 120.721 16.268C120.289 14.324 120.433 10.22 120.721 8.636C120.889 7.748 121.513 6.74 122.521 6.74H129.793C130.537 6.74 131.329 7.604 131.329 8.588C131.329 9.404 130.681 10.508 129.793 10.508H125.017C124.513 10.508 124.489 10.796 124.465 10.964C124.393 12.092 124.345 13.004 124.465 14.324C124.489 14.708 124.705 14.948 125.209 15.068C125.833 15.164 126.361 15.236 127.153 15.236C128.593 15.236 129.793 14.948 130.489 14.684ZM130.945 5.468H122.137C121.417 5.468 120.745 4.676 120.745 3.572C120.745 2.54 121.393 1.676 122.137 1.676H130.945C131.665 1.676 132.433 2.612 132.433 3.548C132.433 4.364 131.881 5.468 130.945 5.468ZM133.081 11.732C132.097 11.732 131.521 10.628 131.521 9.812C131.521 8.876 132.241 7.94 133.081 7.94H134.353C134.305 5.684 134.233 3.62 134.113 2.276C133.969 1.268 134.905 0.308 135.865 0.211999C136.969 0.0919995 137.977 0.835999 138.121 1.844C138.577 5.132 138.385 16.484 138.121 19.148C137.977 20.108 136.969 20.9 135.937 20.804C134.761 20.684 134.065 19.748 134.113 18.788C134.233 17.18 134.329 14.54 134.353 11.732H133.081Z" fill="#F22020"/>
</svg>
