<svg viewBox="0 0 20 20" fill="none" xmlns="http://www.w3.org/2000/svg">
<path fill-rule="evenodd" clip-rule="evenodd" d="M13.1064 3.14193C13.1064 2.8888 13.3117 2.68359 13.5648 2.68359H14.1134C15.8813 2.68359 17.3145 4.11682 17.3145 5.88478V6.43336C17.3145 6.68649 17.1093 6.89169 16.8562 6.89169C16.6031 6.89169 16.3979 6.68649 16.3979 6.43336V5.88478C16.3979 4.62308 15.3751 3.60026 14.1134 3.60026H13.5648C13.3117 3.60026 13.1064 3.39506 13.1064 3.14193ZM5.88478 3.60026C4.62308 3.60026 3.60026 4.62308 3.60026 5.88478V6.43336C3.60026 6.68649 3.39506 6.89169 3.14193 6.89169C2.8888 6.89169 2.68359 6.68649 2.68359 6.43336V5.88478C2.68359 4.11682 4.11681 2.68359 5.88478 2.68359H6.43335C6.68649 2.68359 6.89169 2.8888 6.89169 3.14193C6.89169 3.39506 6.68649 3.60026 6.43335 3.60026H5.88478ZM9.99907 4.97169C6.91956 4.97169 4.42312 7.46813 4.42312 10.5476C4.42312 13.6272 6.91956 16.1236 9.99907 16.1236C13.0786 16.1236 15.575 13.6272 15.575 10.5476C15.575 7.46813 13.0786 4.97169 9.99907 4.97169ZM3.50645 10.5476C3.50645 6.96187 6.41329 4.05502 9.99907 4.05502C13.5848 4.05502 16.4917 6.96187 16.4917 10.5476C16.4917 12.1756 15.8926 13.6636 14.9028 14.8031L16.6317 16.5321C16.8107 16.7111 16.8107 17.0013 16.6317 17.1803C16.4527 17.3593 16.1625 17.3593 15.9835 17.1803L14.2546 15.4513C13.115 16.4411 11.627 17.0403 9.99907 17.0403C8.37114 17.0403 6.88315 16.4411 5.74357 15.4513L4.01459 17.1803C3.8356 17.3593 3.5454 17.3593 3.36641 17.1803C3.18742 17.0013 3.18742 16.7111 3.36641 16.5321L5.09539 14.8031C4.10559 13.6636 3.50645 12.1756 3.50645 10.5476ZM9.99907 7.62074C10.2522 7.62074 10.4574 7.82594 10.4574 8.07907V10.3204C10.4574 10.3443 10.4669 10.3673 10.4838 10.3842L11.6946 11.595C11.8736 11.774 11.8736 12.0642 11.6946 12.2432C11.5156 12.4221 11.2254 12.4221 11.0464 12.2432L9.83565 11.0324C9.64682 10.8436 9.54074 10.5875 9.54074 10.3204V8.07907C9.54074 7.82594 9.74594 7.62074 9.99907 7.62074Z" fill="currentColor"/>
</svg>
