<svg  viewBox="0 0 24 24" fill="none" xmlns="http://www.w3.org/2000/svg">
<path fill-rule="evenodd" clip-rule="evenodd" d="M12 4C12 4 13.6272 4 15.1142 4.62893C15.1142 4.62893 16.5499 5.23621 17.6569 6.34315C17.6569 6.34315 18.7638 7.45008 19.3711 8.88585C19.3711 8.88585 20 10.3728 20 12C20 12 20 13.6272 19.3711 15.1141C19.3711 15.1141 18.7638 16.5499 17.6569 17.6569C17.6569 17.6569 16.5499 18.7638 15.1142 19.3711C15.1142 19.3711 13.6272 20 12 20C12 20 10.3728 20 8.88585 19.3711C8.88585 19.3711 7.45008 18.7638 6.34315 17.6569C6.34315 17.6569 5.23621 16.5499 4.62893 15.1142C4.62893 15.1142 4 13.6272 4 12C4 12 4 10.3728 4.62893 8.88585C4.62893 8.88585 5.23621 7.45008 6.34315 6.34315C6.34315 6.34315 7.45008 5.23621 8.88585 4.62893C8.88585 4.62893 10.3728 4 12 4ZM12 5.23077C12 5.23077 10.6224 5.23077 9.3653 5.76248C9.3653 5.76248 8.15062 6.27624 7.21343 7.21343C7.21343 7.21343 6.27624 8.15062 5.76248 9.3653C5.76248 9.3653 5.23077 10.6224 5.23077 12C5.23077 12 5.23077 13.3776 5.76248 14.6347C5.76248 14.6347 6.27624 15.8494 7.21343 16.7866C7.21343 16.7866 8.15062 17.7238 9.3653 18.2375C9.3653 18.2375 10.6224 18.7692 12 18.7692C12 18.7692 13.3776 18.7692 14.6347 18.2375C14.6347 18.2375 15.8494 17.7238 16.7866 16.7866C16.7866 16.7866 17.7238 15.8494 18.2375 14.6347C18.2375 14.6347 18.7692 13.3776 18.7692 12C18.7692 12 18.7692 10.6224 18.2375 9.3653C18.2375 9.3653 17.7238 8.15062 16.7866 7.21343C16.7866 7.21343 15.8494 6.27624 14.6347 5.76248C14.6347 5.76248 13.3776 5.23077 12 5.23077Z" fill="currentColor"/>
<path d="M10.1538 12C10.1538 12.5098 9.74054 12.9231 9.23077 12.9231C8.721 12.9231 8.30769 12.5098 8.30769 12C8.30769 11.4902 8.721 11.0769 9.23077 11.0769C9.74054 11.0769 10.1538 11.4902 10.1538 12Z" fill="currentColor"/>
<path d="M15.6923 12C15.6923 12.5098 15.279 12.9231 14.7692 12.9231C14.2595 12.9231 13.8462 12.5098 13.8462 12C13.8462 11.4902 14.2595 11.0769 14.7692 11.0769C15.279 11.0769 15.6923 11.4902 15.6923 12Z" fill="currentColor"/>
<path d="M10.302 14.5643C10.2011 14.4973 10.0827 14.4615 9.96154 14.4615L9.95809 14.4615C9.75318 14.4627 9.56228 14.5658 9.44891 14.7365C9.3819 14.8374 9.34615 14.9558 9.34615 15.0769L9.34616 15.0804C9.34731 15.2853 9.45038 15.4762 9.62109 15.5896C10.7021 16.3074 12 16.3075 12 16.3075C13.2978 16.3075 14.3789 15.5896 14.3789 15.5896C14.5506 15.4755 14.6538 15.2831 14.6538 15.0769L14.6538 15.0725C14.653 14.9529 14.6173 14.8361 14.5511 14.7365C14.437 14.5648 14.2446 14.4615 14.0385 14.4615L14.034 14.4616C13.9144 14.4624 13.7976 14.4981 13.698 14.5643C12.9263 15.0768 12 15.0768 12 15.0768C11.0737 15.0768 10.302 14.5643 10.302 14.5643Z" fill="currentColor"/>
<path d="M13.3054 8.99774C13.8462 8.45701 13.8462 7.69231 13.8462 7.69231C13.8462 7.35244 13.5706 7.07692 13.2308 7.07692C12.8909 7.07692 12.6154 7.35244 12.6154 7.69231C12.6154 7.94721 12.4351 8.12745 12.4351 8.12745C12.2549 8.30769 12 8.30769 12 8.30769C11.7451 8.30769 11.5649 8.12745 11.5649 8.12745C11.3846 7.94721 11.3846 7.69231 11.3846 7.69231C11.3846 7.38833 11.5177 6.88933 11.5177 6.88933C11.792 5.86053 12.4804 5.00002 12.4804 5.00002C12.5677 4.89091 12.6154 4.75512 12.6154 4.61539L12.6154 4.61096C12.614 4.42557 12.5292 4.25066 12.3844 4.13485C12.2753 4.04756 12.1397 4 12 4L11.9956 4.00002C11.8102 4.00135 11.6353 4.08619 11.5195 4.23096C10.6695 5.29345 10.3285 6.57221 10.3285 6.57221C10.1538 7.22705 10.1538 7.69231 10.1538 7.69231C10.1538 8.45701 10.6946 8.99774 10.6946 8.99774C11.2353 9.53846 12 9.53846 12 9.53846C12.7647 9.53846 13.3054 8.99774 13.3054 8.99774Z" fill="currentColor"/>
</svg>
