<svg viewBox="0 0 40 40" fill="none" xmlns="http://www.w3.org/2000/svg">
<path fill-rule="evenodd" clip-rule="evenodd" d="M13.3934 6.69008C13.6435 7.13026 13.4894 7.68983 13.0492 7.93991C11.4155 8.86809 10.1446 10.4161 9.43002 12.296C9.25015 12.7693 8.7207 13.0071 8.24748 12.8272C7.77425 12.6473 7.53643 12.1179 7.71631 11.6447C8.56629 9.40844 10.1015 7.50607 12.1436 6.34589C12.5837 6.0958 13.1433 6.2499 13.3934 6.69008ZM26.5868 6.69444C26.8416 6.25702 27.4029 6.10904 27.8403 6.36392C29.863 7.54253 31.4604 9.38697 32.2905 11.6403C32.4655 12.1154 32.2222 12.6424 31.7472 12.8174C31.2721 12.9924 30.7452 12.7491 30.5701 12.2741C29.8926 10.4349 28.5854 8.91994 26.9173 7.94796C26.4799 7.69308 26.3319 7.13186 26.5868 6.69444ZM20.0033 9.7805C15.6232 9.7805 11.939 13.6806 11.939 18.6633V18.6736L11.939 18.6736L11.9063 21.5816C11.905 23.7845 11.0826 25.6056 10.231 26.851H29.7701C28.9541 25.6037 28.1672 23.7801 28.1672 21.5763V21.5655L28.1672 21.5655L28.1999 18.8025C28.1973 13.7425 24.455 9.7805 20.0033 9.7805ZM29.7819 26.9567C29.7819 26.9567 29.7822 26.9562 29.7829 26.9553L29.7819 26.9567ZM10.1847 26.918C10.1849 26.9177 10.1851 26.9175 10.1853 26.9172L10.1847 26.918ZM10.1057 18.6581C10.1083 12.8189 14.465 7.94716 20.0033 7.94716C25.6163 7.94716 30.0332 12.8865 30.0332 18.8077V18.8185H30.0331L30.0005 21.5816C30.0018 23.3787 30.6587 24.8809 31.3449 25.9087C31.7158 26.4643 31.6828 27.1313 31.496 27.6102C31.3141 28.0763 30.8416 28.6843 30.0371 28.6843H9.97078C9.15355 28.6843 8.68191 28.0582 8.50448 27.5893C8.32165 27.1061 8.29215 26.4277 8.6801 25.8705L9.43241 26.3942L8.6801 25.8705C9.39637 24.8416 10.073 23.3518 10.073 21.5763V21.566H10.0731L10.1057 18.6581ZM15.7151 31.0748C16.0302 30.6786 16.6069 30.6128 17.0031 30.9279C17.786 31.5505 18.8355 31.9405 20.0033 31.9405C21.1711 31.9405 22.2206 31.5505 23.0035 30.9279C23.3997 30.6128 23.9764 30.6786 24.2915 31.0748C24.6066 31.4711 24.5408 32.0477 24.1446 32.3628C23.0323 33.2474 21.5791 33.7739 20.0033 33.7739C18.4275 33.7739 16.9743 33.2474 15.862 32.3628C15.4657 32.0477 15.4 31.4711 15.7151 31.0748Z" fill="currentColor"/>
</svg>
