<svg viewBox="0 0 32 32" fill="none" xmlns="http://www.w3.org/2000/svg">
<path fill-rule="evenodd" clip-rule="evenodd" d="M9.78211 4.98047C10.1871 4.98047 10.5154 5.30879 10.5154 5.7138V6.74372H20.695V5.7138C20.695 5.30879 21.0234 4.98047 21.4284 4.98047C21.8334 4.98047 22.1617 5.30879 22.1617 5.7138V6.80935C24.1234 7.16504 25.5903 8.92273 25.5903 11.0036L25.5903 22.7587C25.5903 25.0918 23.7463 27.0186 21.4284 27.0186H9.9998C7.68191 27.0186 5.83789 25.0918 5.83789 22.7587V11.0036C5.83789 9.00045 7.19725 7.29679 9.04878 6.85502V5.7138C9.04878 5.30879 9.3771 4.98047 9.78211 4.98047ZM9.9998 8.21039C8.53059 8.21039 7.30456 9.44133 7.30456 11.0036V11.8645C7.4215 11.7857 7.56241 11.7396 7.71408 11.7396H23.7141C23.8657 11.7396 24.0067 11.7857 24.1236 11.8645V11.0036C24.1236 9.44133 22.8976 8.21039 21.4284 8.21039H9.9998ZM24.1236 13.0814C24.0067 13.1602 23.8657 13.2063 23.7141 13.2063H7.71408C7.56241 13.2063 7.4215 13.1602 7.30456 13.0814V22.7587C7.30456 24.321 8.53059 25.5519 9.9998 25.5519H21.4284C22.8976 25.5519 24.1236 24.321 24.1236 22.7587L24.1236 13.0814ZM16.2855 16.3533C16.6905 16.3533 17.0188 16.6816 17.0188 17.0866V17.175C17.0188 17.58 16.6905 17.9084 16.2855 17.9084C15.8805 17.9084 15.5522 17.58 15.5522 17.175V17.0866C15.5522 16.6816 15.8805 16.3533 16.2855 16.3533ZM20.8569 16.3533C21.2619 16.3533 21.5903 16.6816 21.5903 17.0866V17.175C21.5903 17.58 21.2619 17.9084 20.8569 17.9084C20.4519 17.9084 20.1236 17.58 20.1236 17.175V17.0866C20.1236 16.6816 20.4519 16.3533 20.8569 16.3533ZM11.1427 21.1437C11.5477 21.1437 11.876 21.472 11.876 21.877V21.9654C11.876 22.3704 11.5477 22.6988 11.1427 22.6988C10.7376 22.6988 10.4093 22.3704 10.4093 21.9654V21.877C10.4093 21.472 10.7376 21.1437 11.1427 21.1437ZM16.2855 21.1437C16.6905 21.1437 17.0188 21.472 17.0188 21.877V21.9654C17.0188 22.3704 16.6905 22.6988 16.2855 22.6988C15.8805 22.6988 15.5522 22.3704 15.5522 21.9654V21.877C15.5522 21.472 15.8805 21.1437 16.2855 21.1437Z" fill="currentColor"/>
</svg>
