<svg viewBox="0 0 24 24" fill="none" xmlns="http://www.w3.org/2000/svg">
<path fill-rule="evenodd" clip-rule="evenodd" d="M8.62874 4.58732C8.62874 3.74338 9.27763 3 10.1485 3H13.8515C14.7224 3 15.3713 3.74338 15.3713 4.58732V5.57568C15.3713 5.70882 15.3551 5.83946 15.3245 5.96507H19.406C19.734 5.96507 20 6.23324 20 6.56403C20 6.89483 19.734 7.163 19.406 7.163H18.1017C18.1324 7.28861 18.1485 7.41925 18.1485 7.55239V18.4243C18.1485 19.8141 17.0851 21 15.703 21H8.29701C6.91486 21 5.85149 19.8141 5.85149 18.4243V7.55239C5.85149 7.41925 5.86765 7.28861 5.89827 7.163H4.59402C4.26595 7.163 4 6.89483 4 6.56403C4 6.23324 4.26595 5.96507 4.59402 5.96507H8.67551C8.64489 5.83946 8.62874 5.70882 8.62874 5.57568V4.58732ZM7.37126 7.163C7.21959 7.163 7.03954 7.30462 7.03954 7.55239V18.4243C7.03954 19.218 7.63406 19.8021 8.29701 19.8021H15.703C16.3659 19.8021 16.9605 19.218 16.9605 18.4243V7.55239C16.9605 7.30462 16.7804 7.163 16.6287 7.163H7.37126ZM10.1485 4.19793C9.99683 4.19793 9.81678 4.33955 9.81678 4.58732V5.57568C9.81678 5.82345 9.99683 5.96507 10.1485 5.96507H13.8515C14.0032 5.96507 14.1832 5.82345 14.1832 5.57568V4.58732C14.1832 4.33955 14.0032 4.19793 13.8515 4.19793H10.1485ZM10.1485 9.9185C10.4766 9.9185 10.7425 10.1867 10.7425 10.5175V16.4476C10.7425 16.7784 10.4766 17.0466 10.1485 17.0466C9.82044 17.0466 9.55448 16.7784 9.55448 16.4476V10.5175C9.55448 10.1867 9.82044 9.9185 10.1485 9.9185ZM13.8515 9.9185C14.1796 9.9185 14.4455 10.1867 14.4455 10.5175V16.4476C14.4455 16.7784 14.1796 17.0466 13.8515 17.0466C13.5234 17.0466 13.2575 16.7784 13.2575 16.4476V10.5175C13.2575 10.1867 13.5234 9.9185 13.8515 9.9185Z" fill="currentColor"/>
</svg>
