<svg viewBox="0 0 40 41" fill="none" xmlns="http://www.w3.org/2000/svg">
<path fill-rule="evenodd" clip-rule="evenodd" d="M18.1484 7.43227C18.1484 7.43227 18.1485 7.43227 18.1484 7.43227L12.5235 8.90044C12.126 9.00416 11.765 9.24572 11.5028 9.59628C11.2401 9.94748 11.0938 10.3857 11.0937 10.8416C11.0937 10.8415 11.0937 10.8416 11.0937 10.8416V31.315L19.8959 33.6117C19.8958 33.6116 19.8961 33.6117 19.8959 33.6117C19.9594 33.6281 20.0255 33.6294 20.0892 33.6152C20.1532 33.601 20.2164 33.5712 20.2731 33.5249C20.3301 33.4785 20.3794 33.4164 20.4145 33.3413C20.4496 33.2662 20.4687 33.1817 20.4687 33.0948C20.4687 33.0947 20.4687 33.0949 20.4687 33.0948V9.374C20.4686 9.06345 20.4004 8.75744 20.2717 8.48229C20.1428 8.20683 19.9572 7.96931 19.7318 7.7857C19.5066 7.60223 19.2473 7.47706 18.9743 7.41666C18.7015 7.35629 18.4193 7.36158 18.1484 7.43227ZM22.3438 9.48587V31.1017H27.5V11.4847C27.5 10.9419 27.2931 10.429 26.9367 10.0569C26.5816 9.6862 26.1089 9.48587 25.625 9.48587H22.3438ZM34.0625 32.9767C34.5803 32.9767 35 32.557 35 32.0392C35 31.5215 34.5803 31.1017 34.0625 31.1017H29.375V11.4847C29.375 10.47 28.9893 9.48921 28.2908 8.75992C27.5909 8.02927 26.6329 7.61087 25.625 7.61087H21.933C21.6884 7.11632 21.3424 6.67933 20.916 6.33201C20.4676 5.96667 19.9423 5.71049 19.3793 5.58593C18.8163 5.46135 18.2331 5.47238 17.675 5.61803L12.05 7.08621C12.05 7.08621 12.05 7.0862 12.05 7.08621C11.2305 7.30007 10.5112 7.79164 10.0014 8.47322C9.49204 9.15413 9.21887 9.98777 9.21875 10.8415V31.1017H5.9375C5.41973 31.1017 5 31.5215 5 32.0392C5 32.557 5.41973 32.9767 5.9375 32.9767H10.036L19.423 35.426C19.7739 35.5174 20.1412 35.5243 20.4952 35.4458C20.8491 35.3673 21.1781 35.2063 21.458 34.9781C21.7378 34.75 21.9608 34.461 22.1131 34.1353C22.2653 33.8096 22.3437 33.454 22.3438 33.095V32.9767H34.0625ZM17.1875 19.3563C17.7053 19.3563 18.125 19.776 18.125 20.2938V20.3085C18.125 20.8262 17.7053 21.246 17.1875 21.246C16.6697 21.246 16.25 20.8262 16.25 20.3085V20.2938C16.25 19.776 16.6697 19.3563 17.1875 19.3563Z" fill="currentColor"/>
</svg>
