<svg viewBox="0 0 28 28" fill="none" xmlns="http://www.w3.org/2000/svg">
<path fill-rule="evenodd" clip-rule="evenodd" d="M4.45712 6.79946C4.45713 5.1196 5.81893 3.75781 7.49879 3.75781H18.2991C19.9789 3.75781 21.3407 5.11961 21.3407 6.79948V13.3995C21.3407 13.7539 21.0534 14.0411 20.6991 14.0411C20.3447 14.0411 20.0574 13.7539 20.0574 13.3995V6.79948C20.0574 5.82838 19.2702 5.04115 18.2991 5.04115H7.49879C6.52769 5.04115 5.74046 5.82837 5.74046 6.79947L5.74036 21.1994C5.74036 22.1705 6.52759 22.9578 7.49869 22.9578H12.2987C12.6531 22.9578 12.9404 23.245 12.9404 23.5994C12.9404 23.9538 12.6531 24.2411 12.2987 24.2411H7.49868C5.81882 24.2411 4.45702 22.8793 4.45703 21.1994L4.45712 6.79946ZM8.65741 9.19948C8.65741 8.8451 8.94469 8.55781 9.29907 8.55781H16.4991C16.8535 8.55781 17.1407 8.8451 17.1407 9.19948C17.1407 9.55386 16.8535 9.84115 16.4991 9.84115H9.29907C8.94469 9.84115 8.65741 9.55386 8.65741 9.19948ZM8.65741 12.7995C8.65741 12.4451 8.94469 12.1578 9.29907 12.1578H16.4991C16.8535 12.1578 17.1407 12.4451 17.1407 12.7995C17.1407 13.1539 16.8535 13.4411 16.4991 13.4411H9.29907C8.94469 13.4411 8.65741 13.1539 8.65741 12.7995ZM8.65741 16.3995C8.65741 16.0451 8.94469 15.7578 9.29907 15.7578H12.8991C13.2535 15.7578 13.5407 16.0451 13.5407 16.3995C13.5407 16.7539 13.2535 17.0411 12.8991 17.0411H9.29907C8.94469 17.0411 8.65741 16.7539 8.65741 16.3995ZM23.3528 17.1455C23.6034 17.3961 23.6034 17.8024 23.3528 18.053L18.5528 22.8532C18.4325 22.9735 18.2693 23.0411 18.0991 23.0411C17.9289 23.0411 17.7657 22.9735 17.6453 22.8532L15.4453 20.6532C15.1948 20.4026 15.1948 19.9963 15.4453 19.7458C15.6959 19.4952 16.1022 19.4952 16.3528 19.7458L18.0991 21.492L22.4453 17.1456C22.6959 16.895 23.1022 16.895 23.3528 17.1455Z" fill="currentColor"/>
</svg>
