<svg viewBox="0 0 16 16" fill="none" xmlns="http://www.w3.org/2000/svg">
<g clip-path="url(#clip0_615_1781)">
<path fill-rule="evenodd" clip-rule="evenodd" d="M8.00016 1.83325C4.59441 1.83325 1.8335 4.59416 1.8335 7.99992C1.8335 11.4057 4.59441 14.1666 8.00016 14.1666C11.4059 14.1666 14.1668 11.4057 14.1668 7.99992C14.1668 4.59416 11.4059 1.83325 8.00016 1.83325ZM0.833496 7.99992C0.833496 4.04188 4.04212 0.833252 8.00016 0.833252C11.9582 0.833252 15.1668 4.04188 15.1668 7.99992C15.1668 11.958 11.9582 15.1666 8.00016 15.1666C4.04212 15.1666 0.833496 11.958 0.833496 7.99992Z" fill="currentColor"/>
<path fill-rule="evenodd" clip-rule="evenodd" d="M8.00016 6.73828C8.36835 6.73828 8.66683 7.02319 8.66683 7.37464V11.3634C8.66683 11.7149 8.36835 11.9998 8.00016 11.9998C7.63197 11.9998 7.3335 11.7149 7.3335 11.3634V7.37464C7.3335 7.02319 7.63197 6.73828 8.00016 6.73828Z" fill="currentColor"/>
<path fill-rule="evenodd" clip-rule="evenodd" d="M7.3335 4.66667C7.3335 4.29848 7.63 4 7.99575 4H8.00458C8.37033 4 8.66683 4.29848 8.66683 4.66667C8.66683 5.03486 8.37033 5.33333 8.00458 5.33333H7.99575C7.63 5.33333 7.3335 5.03486 7.3335 4.66667Z" fill="currentColor"/>
</g>
<defs>
<clipPath id="clip0_615_1781">
<rect width="16" height="16" fill="white"/>
</clipPath>
</defs>
</svg>
