<svg viewBox="0 0 28 28" fill="none" xmlns="http://www.w3.org/2000/svg">
<path fill-rule="evenodd" clip-rule="evenodd" d="M13.9995 5.04115C9.05193 5.04115 5.04115 9.05193 5.04115 13.9995C5.04115 18.947 9.05193 22.9578 13.9995 22.9578C18.947 22.9578 22.9578 18.947 22.9578 13.9995C22.9578 9.05193 18.947 5.04115 13.9995 5.04115ZM3.75781 13.9995C3.75781 8.34316 8.34316 3.75781 13.9995 3.75781C19.6558 3.75781 24.2411 8.34316 24.2411 13.9995C24.2411 19.6558 19.6558 24.2411 13.9995 24.2411C8.34316 24.2411 3.75781 19.6558 3.75781 13.9995ZM13.9995 7.95781C14.3539 7.95781 14.6411 8.2451 14.6411 8.59948V9.79114H15.1995C15.2089 9.79114 15.2183 9.79135 15.2277 9.79176C15.7172 9.81329 16.1881 9.98355 16.5797 10.279C16.9712 10.5744 17.2652 10.9809 17.4259 11.4452C17.5418 11.7801 17.3642 12.1455 17.0293 12.2614C16.6944 12.3773 16.329 12.1998 16.2131 11.8649C16.1349 11.6389 15.9927 11.4438 15.8068 11.3035C15.6244 11.1659 15.4077 11.0868 15.1838 11.0745H12.7995C12.4961 11.0745 12.2027 11.1971 11.9846 11.4193C11.766 11.6419 11.6411 11.9463 11.6411 12.2661C11.6411 12.586 11.766 12.8903 11.9846 13.113C12.2027 13.3352 12.4961 13.4578 12.7995 13.4578H15.1995C15.8509 13.4578 16.4732 13.7215 16.9301 14.1869C17.3867 14.6519 17.6411 15.2802 17.6411 15.9328C17.6411 16.5855 17.3867 17.2137 16.9301 17.6787C16.4732 18.1441 15.8509 18.4078 15.1995 18.4078H14.6411V19.5995C14.6411 19.9539 14.3539 20.2411 13.9995 20.2411C13.6451 20.2411 13.3578 19.9539 13.3578 19.5995V18.4078H12.7995C12.7901 18.4078 12.7807 18.4076 12.7713 18.4072C12.2817 18.3857 11.8109 18.2154 11.4193 17.9199C11.0278 17.6246 10.7337 17.218 10.5731 16.7538C10.4572 16.4189 10.6347 16.0534 10.9696 15.9375C11.3045 15.8216 11.67 15.9992 11.7859 16.3341C11.8641 16.5601 12.0062 16.7552 12.1922 16.8955C12.3746 17.0331 12.5913 17.1121 12.8152 17.1245H15.1995C15.5028 17.1245 15.7962 17.0018 16.0144 16.7796C16.233 16.557 16.3578 16.2526 16.3578 15.9328C16.3578 15.613 16.233 15.3086 16.0144 15.086C15.7962 14.8638 15.5028 14.7411 15.1995 14.7411H12.7995C12.1481 14.7411 11.5258 14.4775 11.0688 14.0121C10.6123 13.547 10.3578 12.9188 10.3578 12.2661C10.3578 11.6135 10.6123 10.9853 11.0688 10.5202C11.5258 10.0548 12.1481 9.79114 12.7995 9.79114H13.3578V8.59948C13.3578 8.2451 13.6451 7.95781 13.9995 7.95781Z" fill="currentColor"/>
</svg>
