<svg viewBox="0 0 28 28" fill="none" xmlns="http://www.w3.org/2000/svg">
<path fill-rule="evenodd" clip-rule="evenodd" d="M5.12924 7.14234C5.12924 5.27312 6.64454 3.75781 8.51376 3.75781H20.8566C22.7258 3.75781 24.2411 5.27312 24.2411 7.14234V20.8566C24.2411 22.7258 22.7258 24.2411 20.8566 24.2411H8.51376C6.64454 24.2411 5.12924 22.7258 5.12924 20.8566V17.384H4.39948C4.0451 17.384 3.75781 17.0967 3.75781 16.7423C3.75781 16.388 4.0451 16.1007 4.39948 16.1007H5.12924V13.2697H4.39948C4.0451 13.2697 3.75781 12.9824 3.75781 12.628C3.75781 12.2737 4.0451 11.9864 4.39948 11.9864H5.12924V9.15543H4.39948C4.0451 9.15543 3.75781 8.86815 3.75781 8.51376C3.75781 8.15938 4.0451 7.8721 4.39948 7.8721H5.12924V7.14234ZM6.41257 9.15543H7.14234C7.49672 9.15543 7.784 8.86815 7.784 8.51376C7.784 8.15938 7.49672 7.8721 7.14234 7.8721H6.41257V7.14234C6.41257 5.98188 7.35331 5.04115 8.51376 5.04115H9.92924V22.9578H8.51376C7.35331 22.9578 6.41257 22.0171 6.41257 20.8566V17.384H7.14234C7.49672 17.384 7.784 17.0967 7.784 16.7423C7.784 16.388 7.49672 16.1007 7.14234 16.1007H6.41257V13.2697H7.14234C7.49672 13.2697 7.784 12.9824 7.784 12.628C7.784 12.2737 7.49672 11.9864 7.14234 11.9864H6.41257V9.15543ZM11.2126 22.9578H20.8566C22.0171 22.9578 22.9578 22.0171 22.9578 20.8566V7.14234C22.9578 5.98188 22.0171 5.04115 20.8566 5.04115H11.2126V22.9578ZM14.0435 8.51376C14.0435 8.15938 14.3308 7.8721 14.6852 7.8721H19.4852C19.8396 7.8721 20.1269 8.15938 20.1269 8.51376C20.1269 8.86815 19.8396 9.15543 19.4852 9.15543H14.6852C14.3308 9.15543 14.0435 8.86815 14.0435 8.51376ZM14.0435 12.628C14.0435 12.2737 14.3308 11.9864 14.6852 11.9864H19.4852C19.8396 11.9864 20.1269 12.2737 20.1269 12.628C20.1269 12.9824 19.8396 13.2697 19.4852 13.2697H14.6852C14.3308 13.2697 14.0435 12.9824 14.0435 12.628Z" fill="currentColor"/>
</svg>
