<svg viewBox="0 0 24 25" fill="none" xmlns="http://www.w3.org/2000/svg">
<path fill-rule="evenodd" clip-rule="evenodd" d="M12.0015 6.80664C12.3052 6.80664 12.5515 7.05288 12.5515 7.35664L12.5515 11.9495H17.1443C17.4481 11.9495 17.6943 12.1957 17.6943 12.4995C17.6943 12.8033 17.4481 13.0495 17.1443 13.0495H12.5515L12.5515 17.6424C12.5515 17.9461 12.3052 18.1924 12.0015 18.1924C11.6977 18.1924 11.4515 17.9461 11.4515 17.6424V13.0495H6.85859C6.55484 13.0495 6.30859 12.8033 6.30859 12.4995C6.30859 12.1957 6.55484 11.9495 6.85859 11.9495H11.4515V7.35664C11.4515 7.05288 11.6977 6.80664 12.0015 6.80664Z" fill="currentColor"/>
</svg>
