<svg viewBox="0 0 28 28" fill="none" xmlns="http://www.w3.org/2000/svg">
<path fill-rule="evenodd" clip-rule="evenodd" d="M14.6838 20.048C14.6838 20.4098 14.3974 20.7031 14.0442 20.7031L9.12463 20.7031C6.5978 20.7031 4.5494 18.6049 4.5494 16.0166L4.5494 15.8616C4.5494 13.2733 6.5978 11.1751 9.12463 11.1751L21.2341 11.1751L18.2708 8.44048C18.0084 8.19831 17.9873 7.78408 18.2238 7.51528C18.4602 7.24648 18.8646 7.22488 19.127 7.46706L23.3276 11.3435C23.4622 11.4677 23.5391 11.6446 23.5391 11.8302C23.5391 12.0158 23.4622 12.1927 23.3276 12.3169L19.127 16.1934C18.8646 16.4356 18.4602 16.414 18.2238 16.1452C17.9873 15.8764 18.0084 15.4621 18.2708 15.22L21.2341 12.4853L9.12463 12.4853C7.30422 12.4853 5.82849 13.997 5.82849 15.8616L5.82849 16.0166C5.82849 17.8813 7.30422 19.3929 9.12463 19.3929L14.0442 19.3929C14.3974 19.3929 14.6838 19.6862 14.6838 20.048Z" fill="currentColor"/>
</svg>
