<svg viewBox="0 0 28 28" fill="none" xmlns="http://www.w3.org/2000/svg">
<path fill-rule="evenodd" clip-rule="evenodd" d="M14.0453 5.49291C11.1018 5.49291 8.51126 7.18328 7.11655 9.73266C7.09509 9.77188 7.07045 9.80824 7.04312 9.84161H9.14462C9.53369 9.84161 9.84908 10.157 9.84908 10.5461C9.84908 10.9351 9.53369 11.2505 9.14462 11.2505H4.78845C4.39938 11.2505 4.08398 10.9351 4.08398 10.5461V5.93997C4.08398 5.55091 4.39938 5.23551 4.78845 5.23551C5.17751 5.23551 5.49291 5.55091 5.49291 5.93997V9.84161H5.95386C5.77699 9.62599 5.73844 9.31611 5.8805 9.05644C7.4986 6.09875 10.5392 4.08398 14.0453 4.08398C18.022 4.08398 21.396 6.67313 22.7823 10.2942C22.9214 10.6576 22.7396 11.0649 22.3762 11.204C22.0129 11.3431 21.6056 11.1613 21.4665 10.7979C20.2678 7.66687 17.3813 5.49291 14.0453 5.49291ZM5.62507 16.7973C5.98842 16.6582 6.39573 16.84 6.53483 17.2034C7.73349 20.3344 10.62 22.5084 13.956 22.5084C16.8995 22.5084 19.49 20.818 20.8848 18.2686C20.9062 18.2294 20.9309 18.1931 20.9582 18.1597H18.8567C18.4676 18.1597 18.1522 17.8443 18.1522 17.4552C18.1522 17.0662 18.4676 16.7508 18.8567 16.7508H23.2129C23.6019 16.7508 23.9173 17.0662 23.9173 17.4552V22.0613C23.9173 22.4504 23.6019 22.7658 23.2129 22.7658C22.8238 22.7658 22.5084 22.4504 22.5084 22.0613V18.1597H22.0474C22.2243 18.3753 22.2629 18.6852 22.1208 18.9449C20.5027 21.9026 17.4621 23.9173 13.956 23.9173C9.97929 23.9173 6.60527 21.3282 5.21903 17.7071C5.07993 17.3437 5.26172 16.9364 5.62507 16.7973Z" fill="currentColor"/>
</svg>
