<svg viewBox="0 0 28 28" fill="none" xmlns="http://www.w3.org/2000/svg">
<path fill-rule="evenodd" clip-rule="evenodd" d="M8.93629 4.35742H6.92766C5.50814 4.35742 4.35742 5.50814 4.35742 6.92766V21.0705C4.35742 22.49 5.50814 23.6408 6.92766 23.6408H21.0705C22.49 23.6408 23.6408 22.49 23.6408 21.0705V10.2979C23.6408 9.61625 23.37 8.9625 22.8879 8.48049L19.5177 5.11023C19.0357 4.62822 18.3819 4.35743 17.7003 4.35742L8.93659 4.35742C8.93649 4.35742 8.93639 4.35742 8.93629 4.35742ZM8.29492 5.64076H6.92766C6.21691 5.64076 5.64076 6.21691 5.64076 6.92766V21.0705C5.64076 21.7813 6.21691 22.3574 6.92766 22.3574H8.51453C8.37994 22.2398 8.29492 22.0669 8.29492 21.8741V16.8116C8.29492 15.8359 9.08589 15.0449 10.0616 15.0449H17.9366C18.9123 15.0449 19.7033 15.8359 19.7033 16.8116V22.3574H21.0705C21.7813 22.3574 22.3574 21.7813 22.3574 21.0705V10.2979C22.3574 9.95661 22.2218 9.62929 21.9805 9.38795L22.4174 8.95102L21.9805 9.38795L19.7033 7.11071V8.37409C19.7033 9.34979 18.9123 10.1408 17.9366 10.1408L10.0616 10.1408C9.08589 10.1408 8.29492 9.34979 8.29492 8.37409L8.29492 5.64076ZM18.4634 5.89144C18.4353 5.96357 18.4199 6.04203 18.4199 6.12409V8.37409C18.4199 8.64103 18.2035 8.85742 17.9366 8.85742L10.0616 8.85742C9.79465 8.85742 9.57826 8.64103 9.57826 8.37409L9.57826 5.64076H17.7003C17.9765 5.64076 18.2436 5.72959 18.4634 5.89144ZM18.4199 22.3574V16.8116C18.4199 16.5447 18.2035 16.3283 17.9366 16.3283H10.0616C9.79465 16.3283 9.57826 16.5447 9.57826 16.8116V21.8741C9.57826 22.0669 9.49324 22.2398 9.35865 22.3574H18.4199Z" fill="currentColor"/>
</svg>
