<svg viewBox="0 0 28 28" fill="none" xmlns="http://www.w3.org/2000/svg">
<path fill-rule="evenodd" clip-rule="evenodd" d="M21.3662 6.6298C20.8321 6.09505 19.7424 5.82784 18.0015 6.40804L9.75652 9.15576C9.7564 9.1558 9.75665 9.15572 9.75652 9.15576C8.41554 9.60426 7.46481 10.1062 6.86365 10.6029C6.25997 11.1017 6.08106 11.5294 6.08106 11.8472C6.08106 12.1647 6.25974 12.5917 6.86308 13.0891C7.46407 13.5846 8.41434 14.0848 9.75546 14.531L12.2033 15.3467C12.4149 15.4172 12.5809 15.5832 12.6514 15.7948L13.4672 18.2417C13.9134 19.5823 14.4143 20.5326 14.9105 21.1334C15.4086 21.7365 15.8367 21.9157 16.1555 21.9157C16.4743 21.9157 16.9024 21.7365 17.4006 21.1334C17.8968 20.5326 18.3975 19.5827 18.8437 18.2421L21.5918 9.99945C21.5917 9.99975 21.5919 9.99914 21.5918 9.99945C22.1674 8.25889 21.901 7.1653 21.3662 6.6298ZM22.3688 5.62847C23.4583 6.71933 23.585 8.48599 22.9372 10.4444L22.9366 10.446L20.1882 18.6896C20.1882 18.6897 20.1882 18.6894 20.1882 18.6896C19.7117 20.121 19.1417 21.2505 18.4931 22.0358C17.8464 22.8188 17.0556 23.3327 16.1555 23.3327C15.2555 23.3327 14.4647 22.8188 13.818 22.0358C13.1693 21.2504 12.5993 20.1212 12.1229 18.6896L11.4192 16.579L9.30816 15.8755C7.87662 15.3992 6.74704 14.83 5.96167 14.1825C5.17859 13.5368 4.66406 12.747 4.66406 11.8472C4.66406 10.9475 5.17837 10.1572 5.9611 9.51053C6.7463 8.86178 7.87544 8.2907 9.3071 7.81192L17.5535 5.06372C19.5129 4.41073 21.2785 4.53678 22.3688 5.62847Z" fill="currentColor"/>
<path fill-rule="evenodd" clip-rule="evenodd" d="M16.0812 11.9155C16.4139 12.2482 16.4139 12.7875 16.0812 13.1202L13.1183 16.0832C12.7856 16.4158 12.2462 16.4158 11.9136 16.0832C11.5809 15.7505 11.5809 15.2111 11.9136 14.8785L14.8765 11.9155C15.2092 11.5828 15.7486 11.5828 16.0812 11.9155Z" fill="currentColor"/>
</svg>
