<svg viewBox="0 0 24 24" fill="none" xmlns="http://www.w3.org/2000/svg">
<path fill-rule="evenodd" clip-rule="evenodd" d="M12 4C12 4 13.6272 4 15.1142 4.62893C15.1142 4.62893 16.5499 5.23621 17.6569 6.34315C17.6569 6.34315 18.7638 7.45008 19.3711 8.88585C19.3711 8.88585 20 10.3728 20 12C20 12 20 13.6272 19.3711 15.1141C19.3711 15.1141 18.7638 16.5499 17.6569 17.6569C17.6569 17.6569 16.5499 18.7638 15.1142 19.3711C15.1142 19.3711 13.6272 20 12 20C12 20 10.3728 20 8.88585 19.3711C8.88585 19.3711 7.45008 18.7638 6.34315 17.6569C6.34315 17.6569 5.23621 16.5499 4.62893 15.1142C4.62893 15.1142 4 13.6272 4 12C4 12 4 10.3728 4.62893 8.88585C4.62893 8.88585 5.23621 7.45008 6.34315 6.34315C6.34315 6.34315 7.45008 5.23621 8.88585 4.62893C8.88585 4.62893 10.3728 4 12 4ZM12 5.23077C12 5.23077 10.6224 5.23077 9.3653 5.76248C9.3653 5.76248 8.15062 6.27624 7.21343 7.21343C7.21343 7.21343 6.27624 8.15062 5.76248 9.3653C5.76248 9.3653 5.23077 10.6224 5.23077 12C5.23077 12 5.23077 13.3776 5.76248 14.6347C5.76248 14.6347 6.27624 15.8494 7.21343 16.7866C7.21343 16.7866 8.15062 17.7238 9.3653 18.2375C9.3653 18.2375 10.6224 18.7692 12 18.7692C12 18.7692 13.3776 18.7692 14.6347 18.2375C14.6347 18.2375 15.8494 17.7238 16.7866 16.7866C16.7866 16.7866 17.7238 15.8494 18.2375 14.6347C18.2375 14.6347 18.7692 13.3776 18.7692 12C18.7692 12 18.7692 10.6224 18.2375 9.3653C18.2375 9.3653 17.7238 8.15062 16.7866 7.21343C16.7866 7.21343 15.8494 6.27624 14.6347 5.76248C14.6347 5.76248 13.3776 5.23077 12 5.23077Z" fill="currentColor"/>
<path d="M8.92308 15.0769H15.0769C15.4168 15.0769 15.6923 14.8014 15.6923 14.4615C15.6923 14.1217 15.4168 13.8462 15.0769 13.8462H8.92308C8.58321 13.8462 8.30769 14.1217 8.30769 14.4615C8.30769 14.8014 8.58321 15.0769 8.92308 15.0769Z" fill="currentColor"/>
<path d="M10.1538 10.4615C10.1538 10.9713 9.74054 11.3846 9.23077 11.3846C8.721 11.3846 8.30769 10.9713 8.30769 10.4615C8.30769 9.95177 8.721 9.53846 9.23077 9.53846C9.74054 9.53846 10.1538 9.95177 10.1538 10.4615Z" fill="currentColor"/>
<path d="M15.6923 10.4615C15.6923 10.9713 15.279 11.3846 14.7692 11.3846C14.2595 11.3846 13.8462 10.9713 13.8462 10.4615C13.8462 9.95177 14.2595 9.53846 14.7692 9.53846C15.279 9.53846 15.6923 9.95177 15.6923 10.4615Z" fill="currentColor"/>
</svg>
