<svg viewBox="0 0 20 20" fill="none" xmlns="http://www.w3.org/2000/svg">
<path fill-rule="evenodd" clip-rule="evenodd" d="M7.75642 2.85677C7.75642 2.60364 7.96162 2.39844 8.21475 2.39844H11.7862C12.0393 2.39844 12.2445 2.60364 12.2445 2.85677C12.2445 3.1099 12.0393 3.3151 11.7862 3.3151H8.21475C7.96162 3.3151 7.75642 3.1099 7.75642 2.85677ZM10.0005 5.35592C6.90405 5.35592 4.38737 7.88821 4.38737 11.02C4.38737 14.1519 6.90405 16.6841 10.0005 16.6841C13.0969 16.6841 15.6136 14.1519 15.6136 11.02C15.6136 7.88821 13.0969 5.35592 10.0005 5.35592ZM3.4707 11.02C3.4707 7.38919 6.39057 4.43925 10.0005 4.43925C13.6104 4.43925 16.5302 7.38919 16.5302 11.02C16.5302 14.6509 13.6104 17.6008 10.0005 17.6008C6.39057 17.6008 3.4707 14.6509 3.4707 11.02ZM10.0005 7.99909C10.2536 7.99909 10.4588 8.20429 10.4588 8.45742V10.8693C10.4588 11.1224 10.2536 11.3276 10.0005 11.3276C9.74733 11.3276 9.54213 11.1224 9.54213 10.8693V8.45742C9.54213 8.20429 9.74733 7.99909 10.0005 7.99909Z" fill="currentColor"/>
</svg>
