<svg viewBox="0 0 40 41" fill="none" xmlns="http://www.w3.org/2000/svg">
<path fill-rule="evenodd" clip-rule="evenodd" d="M20 7.49654C12.8184 7.49654 6.99654 13.3184 6.99654 20.5C6.99654 27.6816 12.8184 33.5035 20 33.5035C27.1816 33.5035 33.0035 27.6816 33.0035 20.5C33.0035 13.3184 27.1816 7.49654 20 7.49654ZM5 20.5C5 12.2157 11.7157 5.5 20 5.5C28.2843 5.5 35 12.2157 35 20.5C35 28.7843 28.2843 35.5 20 35.5C11.7157 35.5 5 28.7843 5 20.5ZM14.3438 14.8438C14.7336 14.4539 15.3657 14.4539 15.7555 14.8438L20 19.0882L24.2445 14.8438C24.6343 14.4539 25.2664 14.4539 25.6562 14.8438C26.0461 15.2336 26.0461 15.8657 25.6562 16.2555L21.4118 20.5L25.6562 24.7445C26.0461 25.1343 26.0461 25.7664 25.6562 26.1562C25.2664 26.5461 24.6343 26.5461 24.2445 26.1562L20 21.9118L15.7555 26.1562C15.3657 26.5461 14.7336 26.5461 14.3438 26.1562C13.9539 25.7664 13.9539 25.1343 14.3438 24.7445L18.5882 20.5L14.3438 16.2555C13.9539 15.8657 13.9539 15.2336 14.3438 14.8438Z" fill="currentColor"/>
</svg>
